{
  "accessors": [
    {
      "bufferView": 2,
      "componentType": 5126,
      "count": 4923,
      "max": [
        0.7327560186386108,
        0.23503519594669342,
        1.7992960214614868
      ],
      "min": [
        -0.6827120184898376,
        -0.23190680146217346,
        -0.003990305121988058
      ],
      "type": "VEC3"
    },
    {
      "bufferView": 2,
      "byteOffset": 59076,
      "componentType": 5126,
      "count": 4923,
      "max": [
        0.9988276958465576,
        0.9999935030937195,
        0.99961918592453
      ],
      "min": [
        -0.9983856081962585,
        -0.9998323917388916,
        -0.9999606013298035
      ],
      "type": "VEC3"
    },
    {
      "bufferView": 3,
      "componentType": 5126,
      "count": 4923,
      "max": [
        1.0,
        0.9998700618743896,
        0.9999897480010986,
        1.0
      ],
      "min": [
        -0.9999961853027344,
        -0.9978379011154175,
        -0.9991735816001892,
        -1.0
      ],
      "type": "VEC4"
    },
    {
      "bufferView": 1,
      "componentType": 5126,
      "count": 4923,
      "max": [
        1.0,
        2.9975600242614746
      ],
      "min": [
        0.0020446800626814365,
        1.00341796875
      ],
      "type": "VEC2"
    },
    {
      "bufferView": 0,
      "componentType": 5125,
      "count": 23748,
      "type": "SCALAR"
    },
    {
      "bufferView": 2,
      "byteOffset": 118152,
      "componentType": 5126,
      "count": 2333,
      "max": [
        0.682807981967926,
        0.23503519594669342,
        1.7992360591888428
      ],
      "min": [
        -0.7361720204353333,
        -0.2632752060890198,
        -0.003990169148892164
      ],
      "type": "VEC3"
    },
    {
      "bufferView": 2,
      "byteOffset": 146148,
      "componentType": 5126,
      "count": 2333,
      "max": [
        0.9981412291526794,
        0.9999935030937195,
        0.9996193051338196
      ],
      "min": [
        -0.9983872175216675,
        -0.999963104724884,
        -0.9999606013298035
      ],
      "type": "VEC3"
    },
    {
      "bufferView": 3,
      "byteOffset": 78768,
      "componentType": 5126,
      "count": 2333,
      "max": [
        0.999947190284729,
        0.9966762661933899,
        0.999955952167511,
        1.0
      ],
      "min": [
        -0.9999750256538391,
        -0.9997150301933289,
        -0.9992952942848206,
        -1.0
      ],
      "type": "VEC4"
    },
    {
      "bufferView": 1,
      "byteOffset": 39384,
      "componentType": 5126,
      "count": 2333,
      "max": [
        0.9975590109825134,
        2.6621100902557373
      ],
      "min": [
        0.0024356800131499767,
        1.0029300451278687
      ],
      "type": "VEC2"
    },
    {
      "bufferView": 0,
      "byteOffset": 94992,
      "componentType": 5125,
      "count": 10389,
      "type": "SCALAR"
    },
    {
      "bufferView": 2,
      "byteOffset": 174144,
      "componentType": 5126,
      "count": 639,
      "max": [
        0.7362679839134216,
        -0.12464520335197449,
        1.2548919916152954
      ],
      "min": [
        0.629584014415741,
        -0.26343920826911926,
        1.0291600227355957
      ],
      "type": "VEC3"
    },
    {
      "bufferView": 2,
      "byteOffset": 181812,
      "componentType": 5126,
      "count": 639,
      "max": [
        0.9958688020706177,
        0.9796903133392334,
        0.7144119739532471
      ],
      "min": [
        -0.9965564012527466,
        -0.9999629855155945,
        -0.9881284236907959
      ],
      "type": "VEC3"
    },
    {
      "bufferView": 3,
      "byteOffset": 116096,
      "componentType": 5126,
      "count": 639,
      "max": [
        0.9967905879020691,
        0.7179421782493591,
        0.9429281949996948,
        1.0
      ],
      "min": [
        -0.9997699856758118,
        -0.998746931552887,
        -0.9992934465408325,
        -1.0
      ],
      "type": "VEC4"
    },
    {
      "bufferView": 1,
      "byteOffset": 58048,
      "componentType": 5126,
      "count": 639,
      "max": [
        0.6494140028953552,
        1.2524410486221313
      ],
      "min": [
        0.4938960075378418,
        1.00341796875
      ],
      "type": "VEC2"
    },
    {
      "bufferView": 0,
      "byteOffset": 136548,
      "componentType": 5125,
      "count": 2964,
      "type": "SCALAR"
    },
    {
      "bufferView": 2,
      "byteOffset": 189480,
      "componentType": 5126,
      "count": 1063,
      "max": [
        0.12213239818811417,
        0.10467720031738281,
        2.0872440338134766
      ],
      "min": [
        -0.1307011991739273,
        -0.15955959260463715,
        1.7946720123291016
      ],
      "type": "VEC3"
    },
    {
      "bufferView": 2,
      "byteOffset": 202236,
      "componentType": 5126,
      "count": 1063,
      "max": [
        0.998312771320343,
        0.9979128837585449,
        0.9977182149887085
      ],
      "min": [
        -0.9983128905296326,
        -0.9928725957870483,
        -0.8078678250312805
      ],
      "type": "VEC3"
    },
    {
      "bufferView": 3,
      "byteOffset": 126320,
      "componentType": 5126,
      "count": 1063,
      "max": [
        0.9984667301177979,
        0.9709354043006897,
        0.9872852563858032,
        1.0
      ],
      "min": [
        -0.9974130988121033,
        -0.787680447101593,
        -0.9991140961647034,
        -1.0
      ],
      "type": "VEC4"
    },
    {
      "bufferView": 1,
      "byteOffset": 63160,
      "componentType": 5126,
      "count": 1063,
      "max": [
        0.9926760196685791,
        1.9923739433288574
      ],
      "min": [
        0.003967289812862873,
        1.007323980331421
      ],
      "type": "VEC2"
    },
    {
      "bufferView": 0,
      "byteOffset": 148404,
      "componentType": 5125,
      "count": 3360,
      "type": "SCALAR"
    },
    {
      "bufferView": 2,
      "byteOffset": 214992,
      "componentType": 5126,
      "count": 2716,
      "max": [
        0.09707559645175934,
        0.0654832124710083,
        2.0163960456848145
      ],
      "min": [
        -0.09698720276355743,
        -0.17417840659618378,
        1.6519800424575806
      ],
      "type": "VEC3"
    },
    {
      "bufferView": 2,
      "byteOffset": 247584,
      "componentType": 5126,
      "count": 2716,
      "max": [
        0.9987841248512268,
        0.9983285069465637,
        0.9993258714675903
      ],
      "min": [
        -0.9987677335739136,
        -1.0,
        -0.9999517202377319
      ],
      "type": "VEC3"
    },
    {
      "bufferView": 3,
      "byteOffset": 143328,
      "componentType": 5126,
      "count": 2716,
      "max": [
        1.0,
        0.9992549419403076,
        0.9548212885856628,
        1.0
      ],
      "min": [
        -0.9999982714653015,
        -0.9996839165687561,
        -0.8770453929901123,
        -1.0
      ],
      "type": "VEC4"
    },
    {
      "bufferView": 1,
      "byteOffset": 71664,
      "componentType": 5126,
      "count": 2716,
      "max": [
        1.6728500127792358,
        2.992680072784424
      ],
      "min": [
        0.004348750226199627,
        1.003906011581421
      ],
      "type": "VEC2"
    },
    {
      "bufferView": 0,
      "byteOffset": 161844,
      "componentType": 5125,
      "count": 14676,
      "type": "SCALAR"
    },
    {
      "bufferView": 2,
      "byteOffset": 280176,
      "componentType": 5126,
      "count": 258,
      "max": [
        0.04607279971241951,
        -0.11145920306444168,
        1.8869199752807617
      ],
      "min": [
        -0.04598480090498924,
        -0.13437800109386444,
        1.8595119714736938
      ],
      "type": "VEC3"
    },
    {
      "bufferView": 2,
      "byteOffset": 283272,
      "componentType": 5126,
      "count": 258,
      "max": [
        0.9967844486236572,
        0.565709114074707,
        0.9999973177909851
      ],
      "min": [
        -0.9967843890190125,
        -0.9967817068099976,
        -0.9999973177909851
      ],
      "type": "VEC3"
    },
    {
      "bufferView": 3,
      "byteOffset": 186784,
      "componentType": 5126,
      "count": 258,
      "max": [
        0.996784508228302,
        0.9967843890190125,
        0.8102458715438843,
        1.0
      ],
      "min": [
        -0.29736313223838806,
        -0.9967843294143677,
        -0.8102460503578186,
        1.0
      ],
      "type": "VEC4"
    },
    {
      "bufferView": 1,
      "byteOffset": 93392,
      "componentType": 5126,
      "count": 258,
      "max": [
        1.073240041732788,
        2.0771501064300537
      ],
      "min": [
        -0.07714840024709702,
        0.9267578125
      ],
      "type": "VEC2"
    },
    {
      "bufferView": 0,
      "byteOffset": 220548,
      "componentType": 5125,
      "count": 1344,
      "type": "SCALAR"
    },
    {
      "bufferView": 2,
      "byteOffset": 286368,
      "componentType": 5126,
      "count": 120,
      "max": [
        0.05279960110783577,
        -0.12432479858398438,
        1.8783520460128784
      ],
      "min": [
        -0.05271119996905327,
        -0.14120399951934814,
        1.8627599477767944
      ],
      "type": "VEC3"
    },
    {
      "bufferView": 2,
      "byteOffset": 287808,
      "componentType": 5126,
      "count": 120,
      "max": [
        0.5216010212898254,
        0.10536501556634903,
        0.8879829049110413
      ],
      "min": [
        -0.5216091871261597,
        -0.8827885985374451,
        -0.9977338910102844
      ],
      "type": "VEC3"
    },
    {
      "bufferView": 1,
      "byteOffset": 95456,
      "componentType": 5126,
      "count": 120,
      "max": [
        0.9926760196685791,
        1.6838380098342896
      ],
      "min": [
        0.6191409826278687,
        1.3427729606628418
      ],
      "type": "VEC2"
    },
    {
      "bufferView": 0,
      "byteOffset": 225924,
      "componentType": 5125,
      "count": 432,
      "type": "SCALAR"
    }
  ],
  "asset": {
    "extras": {
      "author": "EWTube0 (https://sketchfab.com/EWTube0)",
      "license": "CC-BY-4.0 (http://creativecommons.org/licenses/by/4.0/)",
      "source": "https://sketchfab.com/3d-models/batman-arkham-origins-joker-a2eefafd72d84bc9b57d6f8af30e4932",
      "title": "Batman Arkham Origins: Joker"
    },
    "generator": "Sketchfab-11.53.2",
    "version": "2.0"
  },
  "bufferViews": [
    {
      "buffer": 0,
      "byteLength": 227652,
      "name": "floatBufferViews",
      "target": 34963
    },
    {
      "buffer": 0,
      "byteLength": 96416,
      "byteOffset": 227652,
      "byteStride": 8,
      "name": "floatBufferViews",
      "target": 34962
    },
    {
      "buffer": 0,
      "byteLength": 289248,
      "byteOffset": 324068,
      "byteStride": 12,
      "name": "floatBufferViews",
      "target": 34962
    },
    {
      "buffer": 0,
      "byteLength": 190912,
      "byteOffset": 613316,
      "byteStride": 16,
      "name": "floatBufferViews",
      "target": 34962
    }
  ],
  "buffers": [
    {
      "byteLength": 804228,
      "uri": "scene.bin"
    }
  ],
  "images": [
    {
      "uri": "textures/Model001_Material001_baseColor.png"
    },
    {
      "uri": "textures/Model001_Material001_normal.png"
    },
    {
      "uri": "textures/Model001_Material004_baseColor.png"
    },
    {
      "uri": "textures/Model001_Material004_normal.png"
    },
    {
      "uri": "textures/Model001_Material005_baseColor.png"
    },
    {
      "uri": "textures/Model001_Material005_normal.png"
    },
    {
      "uri": "textures/Model001_Material006_baseColor.png"
    },
    {
      "uri": "textures/Model001_Material006_normal.png"
    }
  ],
  "materials": [
    {
      "doubleSided": true,
      "name": "Model001_Material001",
      "normalTexture": {
        "index": 1
      },
      "pbrMetallicRoughness": {
        "baseColorTexture": {
          "index": 0
        },
        "metallicFactor": 0.0
      }
    },
    {
      "doubleSided": true,
      "name": "Model001_Material002",
      "normalTexture": {
        "index": 1
      },
      "pbrMetallicRoughness": {
        "baseColorTexture": {
          "index": 0
        },
        "metallicFactor": 0.0
      }
    },
    {
      "doubleSided": true,
      "name": "Model001_Material003",
      "normalTexture": {
        "index": 1
      },
      "pbrMetallicRoughness": {
        "baseColorTexture": {
          "index": 0
        },
        "metallicFactor": 0.0
      }
    },
    {
      "doubleSided": true,
      "name": "Model001_Material004",
      "normalTexture": {
        "index": 3
      },
      "pbrMetallicRoughness": {
        "baseColorTexture": {
          "index": 2
        },
        "metallicFactor": 0.0
      }
    },
    {
      "doubleSided": true,
      "name": "Model001_Material005",
      "normalTexture": {
        "index": 5
      },
      "pbrMetallicRoughness": {
        "baseColorTexture": {
          "index": 4
        },
        "metallicFactor": 0.0
      }
    },
    {
      "doubleSided": true,
      "name": "Model001_Material006",
      "normalTexture": {
        "index": 7
      },
      "pbrMetallicRoughness": {
        "baseColorTexture": {
          "index": 6
        },
        "metallicFactor": 0.0
      }
    },
    {
      "alphaMode": "BLEND",
      "doubleSided": true,
      "name": "Model001_Material007",
      "pbrMetallicRoughness": {
        "baseColorFactor": [
          0.8,
          0.8,
          0.8,
          0.0
        ],
        "metallicFactor": 0.0
      }
    }
  ],
  "meshes": [
    {
      "name": "Object_0",
      "primitives": [
        {
          "attributes": {
            "NORMAL": 1,
            "POSITION": 0,
            "TANGENT": 2,
            "TEXCOORD_0": 3
          },
          "indices": 4,
          "material": 0,
          "mode": 4
        }
      ]
    },
    {
      "name": "Object_1",
      "primitives": [
        {
          "attributes": {
            "NORMAL": 6,
            "POSITION": 5,
            "TANGENT": 7,
            "TEXCOORD_0": 8
          },
          "indices": 9,
          "material": 1,
          "mode": 4
        }
      ]
    },
    {
      "name": "Object_2",
      "primitives": [
        {
          "attributes": {
            "NORMAL": 11,
            "POSITION": 10,
            "TANGENT": 12,
            "TEXCOORD_0": 13
          },
          "indices": 14,
          "material": 2,
          "mode": 4
        }
      ]
    },
    {
      "name": "Object_3",
      "primitives": [
        {
          "attributes": {
            "NORMAL": 16,
            "POSITION": 15,
            "TANGENT": 17,
            "TEXCOORD_0": 18
          },
          "indices": 19,
          "material": 3,
          "mode": 4
        }
      ]
    },
    {
      "name": "Object_4",
      "primitives": [
        {
          "attributes": {
            "NORMAL": 21,
            "POSITION": 20,
            "TANGENT": 22,
            "TEXCOORD_0": 23
          },
          "indices": 24,
          "material": 4,
          "mode": 4
        }
      ]
    },
    {
      "name": "Object_5",
      "primitives": [
        {
          "attributes": {
            "NORMAL": 26,
            "POSITION": 25,
            "TANGENT": 27,
            "TEXCOORD_0": 28
          },
          "indices": 29,
          "material": 5,
          "mode": 4
        }
      ]
    },
    {
      "name": "Object_6",
      "primitives": [
        {
          "attributes": {
            "NORMAL": 31,
            "POSITION": 30,
            "TEXCOORD_0": 32
          },
          "indices": 33,
          "material": 6,
          "mode": 4
        }
      ]
    }
  ],
  "nodes": [
    {
      "children": [
        1
      ],
      "matrix": [
        1.0,
        0.0,
        0.0,
        0.0,
        0.0,
        2.220446049250313e-16,
        -1.0,
        0.0,
        0.0,
        1.0,
        2.220446049250313e-16,
        0.0,
        0.0,
        0.0,
        0.0,
        1.0
      ],
      "name": "Sketchfab_model"
    },
    {
      "children": [
        2,
        3,
        4,
        5,
        6,
        7,
        8
      ],
      "name": "Batman Arkham Origins Joker.obj.cleaner.materialmerger.gles"
    },
    {
      "mesh": 0,
      "name": "Object_2"
    },
    {
      "mesh": 1,
      "name": "Object_3"
    },
    {
      "mesh": 2,
      "name": "Object_4"
    },
    {
      "mesh": 3,
      "name": "Object_5"
    },
    {
      "mesh": 4,
      "name": "Object_6"
    },
    {
      "mesh": 5,
      "name": "Object_7"
    },
    {
      "mesh": 6,
      "name": "Object_8"
    }
  ],
  "samplers": [
    {
      "magFilter": 9729,
      "minFilter": 9987,
      "wrapS": 10497,
      "wrapT": 10497
    }
  ],
  "scene": 0,
  "scenes": [
    {
      "name": "Sketchfab_Scene",
      "nodes": [
        0
      ]
    }
  ],
  "textures": [
    {
      "sampler": 0,
      "source": 0
    },
    {
      "sampler": 0,
      "source": 1
    },
    {
      "sampler": 0,
      "source": 2
    },
    {
      "sampler": 0,
      "source": 3
    },
    {
      "sampler": 0,
      "source": 4
    },
    {
      "sampler": 0,
      "source": 5
    },
    {
      "sampler": 0,
      "source": 6
    },
    {
      "sampler": 0,
      "source": 7
    }
  ]
}
